<?xml version="1.0" encoding="utf-8"?><svg version="1.1" id="Layer_1" xmlns="http://www.w3.org/2000/svg" xmlns:xlink="http://www.w3.org/1999/xlink" x="0px" y="0px" viewBox="0 0 122.88 100.08" style="enable-background:new 0 0 122.88 100.08" xml:space="preserve"><g><path d="M5.49,0h55.95h55.95c1.51,0,2.89,0.62,3.88,1.61c0.99,0.99,1.61,2.37,1.61,3.88v75.79c0,1.51-0.62,2.89-1.61,3.88 c-0.99,0.99-2.37,1.61-3.88,1.61h-25v12.15c0,0.64-0.52,1.16-1.16,1.16H31.66c-0.65,0-1.17-0.53-1.17-1.17V86.77h-25 c-1.51,0-2.89-0.62-3.88-1.61C0.62,84.17,0,82.8,0,81.28V5.49C0,3.98,0.62,2.6,1.61,1.61C2.6,0.62,3.98,0,5.49,0L5.49,0z M45.45,37.11v13.88c0,3.16-0.18,5.45-0.52,6.89c-0.34,1.45-1.05,2.79-2.13,4.05c-1.08,1.25-2.38,2.15-3.9,2.69 c-1.52,0.55-3.22,0.82-5.11,0.82c-2.48,0-4.54-0.29-6.19-0.86c-1.64-0.58-2.95-1.47-3.93-2.68c-0.97-1.22-1.67-2.5-2.08-3.84 c-0.41-1.35-0.61-3.49-0.61-6.42V37.11c0-3.83,0.33-6.69,0.99-8.59c0.66-1.9,1.97-3.43,3.93-4.58c1.96-1.15,4.33-1.72,7.12-1.72 c2.28,0,4.32,0.39,6.12,1.19c1.8,0.8,3.14,1.77,4.03,2.92c0.89,1.15,1.5,2.44,1.82,3.88C45.29,31.66,45.45,33.95,45.45,37.11 L45.45,37.11z M35.08,33.63c0-2.21-0.11-3.59-0.32-4.15c-0.21-0.55-0.71-0.83-1.51-0.83c-0.77,0-1.28,0.3-1.53,0.89 c-0.25,0.59-0.38,1.96-0.38,4.1v20.29c0,2.41,0.11,3.87,0.35,4.36c0.23,0.5,0.73,0.75,1.51,0.75c0.77,0,1.27-0.29,1.52-0.88 c0.24-0.58,0.36-1.89,0.36-3.92V33.63L35.08,33.63z M98.87,23.01v41.64H88.49V42.3c0-3.23-0.07-5.18-0.23-5.83 c-0.15-0.65-0.58-1.15-1.27-1.48c-0.69-0.33-2.24-0.5-4.63-0.5h-1.03v-4.83c5.02-1.07,8.83-3.29,11.42-6.64H98.87L98.87,23.01z M64.96,7.05v72.68h50.87V7.05H64.96L64.96,7.05z M57.92,79.73V7.05H7.05v72.68H57.92L57.92,79.73z"/></g></svg>