<?xml version="1.0" encoding="utf-8"?><svg version="1.1" id="Layer_1" xmlns="http://www.w3.org/2000/svg" xmlns:xlink="http://www.w3.org/1999/xlink" x="0px" y="0px" viewBox="0 0 122.88 120.06" style="enable-background:new 0 0 122.88 120.06" xml:space="preserve"><style type="text/css">.st0{fill-rule:evenodd;clip-rule:evenodd;}</style><g><path class="st0" d="M11.72,110.28l7.39-0.31c-3.31-6.56-3.04-10.1-2.57-16.07c0.12-1.6,0.26-3.39,0.34-5.32 c0.2-4.98,0.13-10.05-0.19-15.12c-0.24-3.89-0.63-7.77-1.15-11.62c-3.4,5.98-5.18,12.82-5.79,20.29 C9.04,90.81,9.92,100.31,11.72,110.28L11.72,110.28z M8.88,112.03c-5.17,1.47-8.1,4.16-8.88,8.02h122.88 c-3.11-5.52-8.77-9.01-19.08-8.76h-0.2c1.57-8.66,2.35-16.93,1.73-24.5c-0.64-7.94-2.81-15.13-7.18-21.22 c-0.23-0.34-0.6-0.59-1.04-0.66c-0.85-0.13-1.64,0.44-1.77,1.29c-1.3,8.18-1.46,16.5-1.62,24.66l-0.03,1.57 c-0.04,2.14,0,3.91,0.04,5.47c0.11,4.21,0.17,6.86-1.83,11.34c-1.68-10.62-2.77-21.29-3.23-32.07c-0.49-11.53-0.27-23.22,0.7-35.15 c0.07-0.85-0.57-1.6-1.43-1.67c-0.78-0.06-1.47,0.46-1.64,1.21c-2.05,7.31-3.74,14.85-5.01,22.63c-1.28,7.8-2.14,15.84-2.55,24.15 c0,0.06,0,0.12,0,0.18l0.22,6.18c-3.19-10.69-5.91-21.49-7.07-32.21c-1.55-14.31-0.33-28.5,6.22-42.16 c0.37-0.77,0.04-1.7-0.73-2.06c-0.66-0.31-1.42-0.12-1.87,0.42l0,0c-6.71,8.21-11.08,19.29-13.08,33.29 c-1.98,13.85-1.65,30.58,1.03,50.22c0,0.03,0.01,0.06,0.02,0.1l0,0l1.8,9.02H53.89l2.19-10.97l0,0c0.01-0.03,0.01-0.06,0.02-0.1 c3.19-23.46,3.59-43.45,1.23-59.99c-2.39-16.69-7.59-29.9-15.58-39.68l0,0c-0.44-0.54-1.21-0.73-1.87-0.42 c-0.77,0.37-1.1,1.29-0.73,2.06c7.87,16.4,9.33,33.43,7.47,50.6c-1.47,13.6-5.03,27.3-9.15,40.84l0.35-9.75c0-0.06,0-0.12,0-0.18 c-0.49-9.93-1.52-19.54-3.04-28.86c-1.52-9.3-3.54-18.31-5.99-27.05c-0.17-0.74-0.86-1.27-1.64-1.2c-0.85,0.07-1.49,0.81-1.43,1.67 c1.17,14.27,1.44,28.27,0.84,42.08c-0.57,13.27-1.93,26.4-4.04,39.48c-3.61-6.66-3.36-9.92-2.91-15.71 c0.12-1.55,0.25-3.27,0.34-5.43c0.21-5.11,0.13-10.28-0.19-15.44c-0.33-5.34-0.94-10.69-1.78-15.99c-0.13-0.85-0.93-1.42-1.77-1.29 c-0.44,0.07-0.81,0.32-1.04,0.66c-5.19,7.23-7.77,15.78-8.53,25.23C5.89,91.19,6.9,101.37,8.88,112.03L8.88,112.03z M94.94,110.04 l5.69,0.24c1.47-8.23,2.19-16.08,1.61-23.25c-0.48-5.9-1.84-11.34-4.41-16.13c-0.75,6.63-0.88,13.38-1.01,20.02l-0.03,1.57 c-0.04,2.07,0,3.8,0.04,5.34C96.94,102.36,97.01,105.25,94.94,110.04L94.94,110.04z M68.25,110.18h12.89h0.02h7.75 c-1.74-10.88-2.86-21.82-3.34-32.89c-0.26-6.08-0.33-12.18-0.19-18.33c-0.37,1.9-0.71,3.81-1.02,5.73 c-1.26,7.67-2.11,15.58-2.51,23.75l0.64,17.73c0.03,0.85-0.64,1.57-1.49,1.6c-0.71,0.02-1.33-0.43-1.53-1.08 c-4.63-14.43-9.05-29.18-10.65-43.88c-1.02-9.44-0.88-18.84,1.13-28.11c-2.01,5.22-3.49,11.12-4.43,17.7 c-1.94,13.55-1.61,29.96,1.01,49.27l0,0L68.25,110.18L68.25,110.18z M35.29,110.15h15.67l2.09-10.43l0,0 c3.14-23.13,3.54-42.8,1.22-59.04c-1.35-9.43-3.61-17.7-6.79-24.8c3.23,12.26,3.6,24.73,2.24,37.26 c-1.9,17.56-7.2,35.19-12.72,52.43c-0.21,0.65-0.82,1.1-1.53,1.08c-0.85-0.03-1.52-0.75-1.49-1.6l0.77-21.22 c-0.48-9.78-1.5-19.26-3-28.45c-0.57-3.49-1.21-6.94-1.92-10.36c0.28,8.56,0.23,17.04-0.13,25.47 c-0.57,13.35-1.94,26.54-4.04,39.66h9.63H35.29L35.29,110.15z"/></g></svg>