<svg id="Layer_1" data-name="Layer 1" xmlns="http://www.w3.org/2000/svg" viewBox="0 0 907.15 101.12"><defs><style>.cls-1{fill:#fff;}.cls-2{fill:none;stroke:#fff;stroke-miterlimit:10;}.cls-3{fill:#0e8000;}</style></defs><path class="cls-1" d="M166.41,23.81l20.88,82.24h-23L161.13,91.5H125.46l-8.09,14.55H95.43l48.92-82.24h22.06m-31.8,51.27h23l-6.46-29.8-16.54,29.8m32.57-52.27h-23.4l-.29.49L94.57,105.54l-.9,1.51H118l.28-.51,7.81-14h34.27l3,13.76.17.79h25.09l-.32-1.25L167.38,23.57l-.2-.76ZM136.31,74.08l14.43-26,5.63,26Z" transform="translate(-12.93 -7.46)"/><path class="cls-1" d="M244.19,22.52a43.12,43.12,0,0,1,17.71,3.81A38.6,38.6,0,0,1,276,36.72l-14.08,15a26.92,26.92,0,0,0-8.68-8,20.76,20.76,0,0,0-10.56-3,23.65,23.65,0,0,0-12.43,3.46,24.91,24.91,0,0,0-9.09,9.44,26.48,26.48,0,0,0-3.35,13.14,23.42,23.42,0,0,0,2.58,11,19.59,19.59,0,0,0,7.16,7.74,19.27,19.27,0,0,0,10.32,2.82,26.93,26.93,0,0,0,10.86-2.58,38.69,38.69,0,0,0,10.61-7l11.15,13.49a57.64,57.64,0,0,1-17,11.2,46.83,46.83,0,0,1-18.66,4.17,40.51,40.51,0,0,1-20.29-5,35.53,35.53,0,0,1-13.85-13.9,40.47,40.47,0,0,1-4.92-20,44.16,44.16,0,0,1,6.45-23.47,45.72,45.72,0,0,1,17.6-16.6,50.45,50.45,0,0,1,24.4-6m0-1a51.57,51.57,0,0,0-24.88,6.16,47,47,0,0,0-18,17,45.32,45.32,0,0,0-6.6,24,41.68,41.68,0,0,0,5,20.49A36.76,36.76,0,0,0,214,103.4a41.62,41.62,0,0,0,20.79,5.18,48,48,0,0,0,19-4.25,59,59,0,0,0,17.31-11.4l.67-.64-.59-.72L260.09,78.08l-.67-.82-.78.72a37.48,37.48,0,0,1-10.34,6.86,25.91,25.91,0,0,1-10.45,2.5,18.43,18.43,0,0,1-9.8-2.67,18.63,18.63,0,0,1-6.79-7.36,22.44,22.44,0,0,1-2.47-10.56A25.54,25.54,0,0,1,222,54.1,24.25,24.25,0,0,1,230.74,45a22.82,22.82,0,0,1,11.92-3.31,20,20,0,0,1,10.06,2.85,26.07,26.07,0,0,1,8.36,7.75l.71,1,.84-.9,14.08-15,.61-.65-.57-.68a39.72,39.72,0,0,0-14.44-10.65,44.3,44.3,0,0,0-18.12-3.9Z" transform="translate(-12.93 -7.46)"/><path class="cls-1" d="M358,23.81l-3.41,17.13h-43.4L308,56.31h39.3l-3.4,17h-39.3l-3.17,15.6h44.7l-3.41,17.13H276.68l16.43-82.24H358m1.21-1H292.29l-.16.81L275.7,105.86l-.24,1.19h68.1l.16-.8,3.4-17.13.23-1.2H302.66l2.76-13.6h39.31l.16-.8,3.4-17,.24-1.2H309.24L312,41.94H355.4l.16-.8L359,24l.23-1.2Z" transform="translate(-12.93 -7.46)"/><path class="cls-1" d="M448.85,23.81l-16.42,82.24H411l6.34-31.56H384.1l-6.34,31.56H356.29l16.43-82.24h21.47L387.5,57.37h33.2l6.68-33.56h21.47m1.22-1H426.56l-.16.81-6.52,32.75H388.72L395.17,24l.23-1.2H371.9l-.17.81-16.42,82.24-.24,1.19h23.51l.16-.8,6.17-30.76h31.17L410,105.85l-.24,1.2h23.51l.16-.8L449.84,24l.23-1.2Z" transform="translate(-12.93 -7.46)"/><path class="cls-1" d="M543.41,23.81l-9.5,47.75Q530.63,88,519.13,97.49T490.38,107a42.47,42.47,0,0,1-17.53-3.34A25.2,25.2,0,0,1,457.3,79.42a36.49,36.49,0,0,1,.82-7.86l9.62-47.75h21.35l-9.5,47.75a18.56,18.56,0,0,0-.47,4.22q0,6,3.7,9.45t10,3.46a18.68,18.68,0,0,0,12.55-4.64,21.74,21.74,0,0,0,7-12.49l9.5-47.75h21.47m1.22-1H521.12l-.16.81-9.5,47.74a20.89,20.89,0,0,1-6.71,11.94,17.82,17.82,0,0,1-11.9,4.39c-3.94,0-7.09-1.07-9.35-3.19s-3.38-5-3.38-8.72a17.68,17.68,0,0,1,.44-4L490.07,24l.24-1.2H466.92l-.16.8-9.62,47.75a37.65,37.65,0,0,0-.84,8.06,27.4,27.4,0,0,0,4.21,15.21,27.09,27.09,0,0,0,11.93,9.93A43.57,43.57,0,0,0,490.38,108c11.69,0,21.57-3.27,29.38-9.73s12.9-15.37,15.13-26.5L544.39,24l.24-1.2Z" transform="translate(-12.93 -7.46)"/><path class="cls-1" d="M597,23.81q12.56,0,19.66,4.81t7.09,12.91a19.43,19.43,0,0,1-5,13.08,24.69,24.69,0,0,1-13,7.8,15.65,15.65,0,0,1,9.68,5.86,17.83,17.83,0,0,1,3.46,11,22.58,22.58,0,0,1-4.64,14.14,29.5,29.5,0,0,1-13,9.33,51.84,51.84,0,0,1-19.12,3.28h-40.6L558,23.81H597M572.86,56.54h16.42a12.4,12.4,0,0,0,8.21-2.64,8.61,8.61,0,0,0,3.17-7,5.59,5.59,0,0,0-2.11-4.69,9.58,9.58,0,0,0-6-1.64H576l-3.16,15.95m-6.57,32.85h16.42q6.35,0,10.21-2.81a8.73,8.73,0,0,0,3.87-7.39A5.92,5.92,0,0,0,594,74a13.86,13.86,0,0,0-7.75-1.87H569.69l-3.4,17.24M597,22.81H557.14l-.16.81-16.43,82.24-.24,1.19h41.82a53.09,53.09,0,0,0,19.48-3.35A30.55,30.55,0,0,0,615,94.05a23.62,23.62,0,0,0,4.85-14.75,18.83,18.83,0,0,0-3.67-11.63,15.92,15.92,0,0,0-7-5.28,25.16,25.16,0,0,0,10.33-7.13,20.47,20.47,0,0,0,5.29-13.73c0-5.72-2.53-10.34-7.53-13.74s-11.68-5-20.22-5ZM576.85,41.59h15.72A8.66,8.66,0,0,1,597.94,43a4.6,4.6,0,0,1,1.72,3.9,7.63,7.63,0,0,1-2.81,6.22,11.5,11.5,0,0,1-7.57,2.4H574.07l2.78-13.95Zm-6.34,31.56h15.72a12.89,12.89,0,0,1,7.19,1.71,4.91,4.91,0,0,1,2.37,4.33,7.71,7.71,0,0,1-3.46,6.58c-2.39,1.74-5.63,2.62-9.62,2.62H567.5l3-15.24Z" transform="translate(-12.93 -7.46)"/><path class="cls-1" d="M705.81,23.81q14.09,0,21.65,6.1T735,47a36.1,36.1,0,0,1-5.28,19.65,33.11,33.11,0,0,1-15.14,12.73l11.5,26.63h-24.4l-7.39-22.76H678.48l-4.58,22.76H652.44l16.42-82.24h36.95M681.88,66.16h15.49q7.86,0,12.32-4.1t4.45-11.38a8.9,8.9,0,0,0-3-7.22c-2-1.68-4.87-2.52-8.62-2.52h-15.6l-5,25.22m23.93-43.35H668l-.16.81-16.43,82.24-.23,1.19h23.5l.16-.8,4.42-22h14.29l7.17,22.07.22.69h26.65l-.6-1.4L715.92,79.93a34,34,0,0,0,14.67-12.71A37.2,37.2,0,0,0,736,47c0-7.63-2.67-13.66-7.94-17.91s-12.7-6.32-22.28-6.32ZM687.75,41.94h14.78c3.49,0,6.18.77,8,2.29a7.89,7.89,0,0,1,2.63,6.45c0,4.6-1.35,8.08-4.13,10.64s-6.69,3.84-11.64,3.84H683.1l4.65-23.22Z" transform="translate(-12.93 -7.46)"/><path class="cls-1" d="M828.18,23.81l-9.51,47.75Q815.39,88,803.89,97.49T775.15,107a42.52,42.52,0,0,1-17.54-3.34,25.2,25.2,0,0,1-15.55-24.23,36.49,36.49,0,0,1,.83-7.86l9.62-47.75h21.35l-9.5,47.75a18,18,0,0,0-.47,4.22q0,6,3.69,9.45t10,3.46a18.71,18.71,0,0,0,12.56-4.64,21.73,21.73,0,0,0,7-12.49l9.51-47.75h21.47m1.22-1H805.89l-.16.81-9.51,47.74a20.89,20.89,0,0,1-6.71,11.94,17.78,17.78,0,0,1-11.9,4.39c-3.94,0-7.08-1.07-9.35-3.19s-3.37-5-3.37-8.72a17.68,17.68,0,0,1,.44-4L774.84,24l.24-1.2H751.69l-.16.8-9.62,47.75a37.65,37.65,0,0,0-.85,8.06,26.24,26.24,0,0,0,16.14,25.14A43.65,43.65,0,0,0,775.15,108c11.68,0,21.57-3.27,29.38-9.73s12.9-15.37,15.13-26.5L829.16,24l.24-1.2Z" transform="translate(-12.93 -7.46)"/><path class="cls-1" d="M918.86,23.81l-16.42,82.24H883.67L856.33,56.78l-10,49.27H826.3l16.42-82.24H861.5L889,73.32l10-49.51h19.94m1.22-1h-22l-.16.81L888.5,70.46,862.37,23.33l-.29-.52H841.9l-.16.81-16.42,82.24-.24,1.19h22.1l.16-.8,9.44-46.61,26,46.9.29.51h20.18l.16-.8L919.84,24l.24-1.2Z" transform="translate(-12.93 -7.46)"/><path class="cls-1" d="M94.2,8.46a11.7,11.7,0,1,1-11.7,11.7A11.69,11.69,0,0,1,94.2,8.46m0-1a12.7,12.7,0,1,0,12.69,12.7A12.72,12.72,0,0,0,94.2,7.46Z" transform="translate(-12.93 -7.46)"/><path class="cls-1" d="M60,23.83A26,26,0,0,1,74.2,71.52l19.38,34.53h-24l-17-30.27H14.48L24,54.84H60a5,5,0,0,0,0-10.07H36.3l8.85-20.94H60m0-1H44.49l-.26.61L35.38,44.38l-.59,1.39H60a4,4,0,0,1,0,8.07H23.32l-.26.59L13.57,75.37l-.64,1.41H52l16.7,29.76.29.51h26.3l-.83-1.49L75.52,71.83A27,27,0,0,0,60,22.83Z" transform="translate(-12.93 -7.46)"/><path class="cls-2" d="M646.5,95.29A11.7,11.7,0,1,1,634.8,83.6a11.7,11.7,0,0,1,11.7,11.69" transform="translate(-12.93 -7.46)"/><path d="M164.3,106.05,161.13,91.5H125.46l-8.09,14.55H95.43l48.92-82.24h22.06l20.88,82.24Zm-29.69-31h23l-6.46-29.8Z" transform="translate(-12.93 -7.46)"/><path d="M261.9,26.33A38.6,38.6,0,0,1,276,36.72l-14.08,15a26.92,26.92,0,0,0-8.68-8,20.76,20.76,0,0,0-10.56-3,23.65,23.65,0,0,0-12.43,3.46,24.91,24.91,0,0,0-9.09,9.44,26.48,26.48,0,0,0-3.35,13.14,23.42,23.42,0,0,0,2.58,11,19.59,19.59,0,0,0,7.16,7.74,19.27,19.27,0,0,0,10.32,2.82,26.93,26.93,0,0,0,10.86-2.58,38.69,38.69,0,0,0,10.61-7l11.15,13.49a57.64,57.64,0,0,1-17,11.2,46.83,46.83,0,0,1-18.66,4.17,40.51,40.51,0,0,1-20.29-5,35.53,35.53,0,0,1-13.85-13.9,40.47,40.47,0,0,1-4.92-20,44.16,44.16,0,0,1,6.45-23.47,45.72,45.72,0,0,1,17.6-16.6,50.45,50.45,0,0,1,24.4-6A43.12,43.12,0,0,1,261.9,26.33Z" transform="translate(-12.93 -7.46)"/><path d="M354.58,40.94h-43.4L308,56.31h39.3l-3.4,17h-39.3l-3.17,15.6h44.7l-3.41,17.13H276.68l16.43-82.24H358Z" transform="translate(-12.93 -7.46)"/><path class="cls-3" d="M427.38,23.81h21.47l-16.42,82.24H411l6.34-31.56H384.1l-6.34,31.56H356.29l16.43-82.24h21.47L387.5,57.37h33.2Z" transform="translate(-12.93 -7.46)"/><path class="cls-3" d="M533.91,71.56Q530.63,88,519.13,97.49T490.38,107a42.47,42.47,0,0,1-17.53-3.34A25.2,25.2,0,0,1,457.3,79.42a36.49,36.49,0,0,1,.82-7.86l9.62-47.75h21.35l-9.5,47.75a18.56,18.56,0,0,0-.47,4.22q0,6,3.7,9.45t10,3.46a18.68,18.68,0,0,0,12.55-4.64,21.74,21.74,0,0,0,7-12.49l9.5-47.75h21.47Z" transform="translate(-12.93 -7.46)"/><path class="cls-3" d="M615.39,68.27a17.83,17.83,0,0,1,3.46,11,22.58,22.58,0,0,1-4.64,14.14,29.5,29.5,0,0,1-13,9.33,51.84,51.84,0,0,1-19.12,3.28h-40.6L558,23.81H597q12.56,0,19.66,4.81t7.09,12.91a19.43,19.43,0,0,1-5,13.08,24.69,24.69,0,0,1-13,7.8A15.65,15.65,0,0,1,615.39,68.27ZM592.92,86.58a8.73,8.73,0,0,0,3.87-7.39A5.92,5.92,0,0,0,594,74a13.86,13.86,0,0,0-7.75-1.87H569.69l-3.4,17.24h16.42Q589.06,89.39,592.92,86.58Zm4.57-32.68a8.61,8.61,0,0,0,3.17-7,5.59,5.59,0,0,0-2.11-4.69,9.58,9.58,0,0,0-6-1.64H576l-3.16,15.95h16.42A12.4,12.4,0,0,0,597.49,53.9Z" transform="translate(-12.93 -7.46)"/><path class="cls-3" d="M729.75,66.69a33.11,33.11,0,0,1-15.14,12.73l11.5,26.63h-24.4l-7.39-22.76H678.48l-4.58,22.76H652.44l16.42-82.24h36.95q14.09,0,21.65,6.1T735,47A36.1,36.1,0,0,1,729.75,66.69Zm-47.87-.53h15.49q7.86,0,12.32-4.1t4.45-11.38a8.9,8.9,0,0,0-3-7.22c-2-1.68-4.87-2.52-8.62-2.52h-15.6Z" transform="translate(-12.93 -7.46)"/><path class="cls-3" d="M818.67,71.56Q815.39,88,803.89,97.49T775.15,107a42.52,42.52,0,0,1-17.54-3.34,25.2,25.2,0,0,1-15.55-24.23,36.49,36.49,0,0,1,.83-7.86l9.62-47.75h21.35l-9.5,47.75a18,18,0,0,0-.47,4.22q0,6,3.69,9.45t10,3.46a18.71,18.71,0,0,0,12.56-4.64,21.73,21.73,0,0,0,7-12.49l9.51-47.75h21.47Z" transform="translate(-12.93 -7.46)"/><path class="cls-3" d="M898.92,23.81h19.94l-16.42,82.24H883.67L856.33,56.78l-10,49.27H826.3l16.42-82.24H861.5L889,73.32Z" transform="translate(-12.93 -7.46)"/><path d="M94.2,8.46a11.7,11.7,0,1,0,11.69,11.7A11.7,11.7,0,0,0,94.2,8.46Z" transform="translate(-12.93 -7.46)"/><path d="M86,49.81a26,26,0,0,0-26-26H45.15L36.3,44.77H60a5,5,0,0,1,0,10.07H24L14.48,75.78h38.1l17,30.27h24L74.2,71.52A26,26,0,0,0,86,49.81Z" transform="translate(-12.93 -7.46)"/><path d="M646.5,95.29A11.7,11.7,0,1,1,634.8,83.6a11.7,11.7,0,0,1,11.7,11.69" transform="translate(-12.93 -7.46)"/></svg>