<?xml version="1.0" encoding="utf-8"?>
<svg viewBox="36.869 12.265 565.136 92.162" xmlns="http://www.w3.org/2000/svg">
  <defs>
    <style>.cls-1{fill:#0e8000;}</style>
  </defs>
  <g style="" transform="matrix(0.927446, 0, 0, 0.927446, 23.509987, 4.418573)">
    <path d="M 164.224 106.274 L 161.054 91.724 L 125.384 91.724 L 117.294 106.274 L 95.354 106.274 L 144.274 24.034 L 166.334 24.034 L 187.214 106.274 Z M 134.534 75.274 L 157.534 75.274 L 151.074 45.474 Z" style="stroke: rgb(255, 255, 255); stroke-width: 6px; fill: rgb(201, 201, 201);"/>
    <path d="M 261.824 26.554 C 267.258 28.891 272.082 32.446 275.924 36.944 L 261.844 51.944 C 259.578 48.668 256.613 45.936 253.164 43.944 C 249.977 42.015 246.329 40.978 242.604 40.944 C 238.22 40.923 233.916 42.121 230.174 44.404 C 226.355 46.683 223.217 49.942 221.084 53.844 C 218.845 57.859 217.691 62.387 217.734 66.984 C 217.683 70.806 218.569 74.583 220.314 77.984 C 221.948 81.17 224.424 83.847 227.474 85.724 C 230.578 87.619 234.156 88.597 237.794 88.544 C 241.554 88.452 245.254 87.573 248.654 85.964 C 252.552 84.232 256.137 81.866 259.264 78.964 L 270.414 92.454 C 265.456 97.166 259.7 100.959 253.414 103.654 C 247.547 106.312 241.194 107.732 234.754 107.824 C 227.669 107.96 220.673 106.236 214.464 102.824 C 208.634 99.583 203.834 94.766 200.614 88.924 C 197.276 82.793 195.581 75.903 195.694 68.924 C 195.603 60.651 197.837 52.519 202.144 45.454 C 206.413 38.441 212.493 32.707 219.744 28.854 C 227.241 24.828 235.634 22.764 244.144 22.854 C 250.232 22.825 256.258 24.086 261.824 26.554 Z" style="stroke: rgb(255, 255, 255); stroke-width: 6px; fill: rgb(201, 201, 201);"/>
    <path d="M 354.504 41.164 L 311.104 41.164 L 307.924 56.534 L 347.224 56.534 L 343.824 73.534 L 304.524 73.534 L 301.354 89.134 L 346.054 89.134 L 342.644 106.264 L 276.604 106.264 L 293.034 24.024 L 357.924 24.024 Z" style="stroke: rgb(255, 255, 255); stroke-width: 6px; fill: rgb(201, 201, 201);"/>
    <path class="cls-1" d="M 427.304 24.034 L 448.774 24.034 L 432.354 106.274 L 410.924 106.274 L 417.264 74.714 L 384.024 74.714 L 377.684 106.274 L 356.214 106.274 L 372.644 24.034 L 394.114 24.034 L 387.424 57.594 L 420.624 57.594 Z" style="stroke: rgb(255, 255, 255); stroke-width: 6px; fill: rgb(201, 201, 201);"/>
    <path class="cls-1" d="M 533.834 71.784 C 531.647 82.744 526.72 91.387 519.054 97.714 C 511.387 104.041 501.804 107.211 490.304 107.224 C 484.29 107.365 478.314 106.226 472.774 103.884 C 463.029 99.853 456.825 90.182 457.224 79.644 C 457.212 77.002 457.487 74.367 458.044 71.784 L 467.664 24.034 L 489.014 24.034 L 479.514 71.784 C 479.196 73.168 479.038 74.584 479.044 76.004 C 479.044 80.004 480.277 83.154 482.744 85.454 C 485.21 87.754 488.544 88.907 492.744 88.914 C 497.356 88.97 501.827 87.317 505.294 84.274 C 508.97 81.02 511.437 76.618 512.294 71.784 L 521.794 24.034 L 543.264 24.034 Z" style="stroke: rgb(255, 255, 255); stroke-width: 6px; fill: rgb(201, 201, 201);"/>
    <path class="cls-1" d="M 615.342 69.324 C 617.681 72.506 618.899 76.375 618.802 80.324 C 618.897 85.426 617.262 90.41 614.162 94.464 C 610.771 98.712 606.272 101.941 601.162 103.794 C 595.051 106.081 588.565 107.193 582.042 107.074 L 541.442 107.074 L 557.952 24.864 L 596.952 24.864 C 605.325 24.864 611.878 26.467 616.612 29.674 C 621.345 32.881 623.708 37.184 623.702 42.584 C 623.719 47.414 621.936 52.077 618.702 55.664 C 615.293 59.563 610.746 62.292 605.702 63.464 C 609.532 64.151 612.969 66.24 615.342 69.324 Z M 592.872 87.634 C 595.331 85.986 596.788 83.204 596.742 80.244 C 596.8 78.141 595.738 76.165 593.952 75.054 C 591.607 73.685 588.912 73.035 586.202 73.184 L 569.642 73.184 L 566.242 90.424 L 582.662 90.424 C 586.895 90.437 590.298 89.507 592.872 87.634 Z M 597.442 54.954 C 599.539 53.248 600.713 50.656 600.612 47.954 C 600.712 46.141 599.925 44.392 598.502 43.264 C 596.74 42.065 594.628 41.488 592.502 41.624 L 575.952 41.624 L 572.792 57.574 L 589.212 57.574 C 592.18 57.715 595.101 56.785 597.442 54.954 Z" style="stroke: rgb(255, 255, 255); stroke-width: 6px; fill: rgb(201, 201, 201);"/>
    <path d="M 94.124 8.684 C 85.117 8.676 79.479 18.421 83.976 26.225 C 88.473 34.029 99.731 34.039 104.241 26.243 C 105.271 24.462 105.814 22.441 105.814 20.384 C 105.814 13.926 100.581 8.689 94.124 8.684 Z" style="stroke: rgb(255, 255, 255); stroke-width: 6px; fill: rgb(201, 201, 201);"/>
    <path d="M 85.924 50.034 C 85.924 35.675 74.283 24.034 59.924 24.034 L 45.074 24.034 L 36.224 44.994 L 59.924 44.994 C 63.8 44.994 66.222 49.19 64.284 52.546 C 63.385 54.104 61.722 55.064 59.924 55.064 L 23.924 55.064 L 14.404 76.004 L 52.504 76.004 L 69.504 106.274 L 93.504 106.274 L 74.124 71.744 C 81.464 66.958 85.9 58.797 85.924 50.034 Z" style="stroke: rgb(255, 255, 255); stroke-width: 6px; fill: rgb(201, 201, 201);"/>
    <path d="M 164.3 106.05 L 161.13 91.5 L 125.46 91.5 L 117.37 106.05 L 95.43 106.05 L 144.35 23.81 L 166.41 23.81 L 187.29 106.05 Z M 134.61 75.05 L 157.61 75.05 L 151.15 45.25 Z" style="stroke: rgb(255, 255, 255);"/>
    <path d="M 261.9 26.33 C 267.334 28.667 272.158 32.222 276 36.72 L 261.92 51.72 C 259.654 48.444 256.69 45.712 253.24 43.72 C 250.053 41.791 246.405 40.754 242.68 40.72 C 238.296 40.699 233.993 41.897 230.25 44.18 C 226.432 46.459 223.293 49.718 221.16 53.62 C 218.922 57.635 217.767 62.163 217.81 66.76 C 217.759 70.582 218.645 74.359 220.39 77.76 C 222.024 80.946 224.501 83.623 227.55 85.5 C 230.655 87.395 234.233 88.373 237.87 88.32 C 241.63 88.228 245.33 87.349 248.73 85.74 C 252.628 84.008 256.213 81.642 259.34 78.74 L 270.49 92.23 C 265.533 96.942 259.776 100.735 253.49 103.43 C 247.623 106.089 241.271 107.508 234.83 107.6 C 227.746 107.736 220.75 106.012 214.54 102.6 C 208.71 99.359 203.91 94.542 200.69 88.7 C 197.353 82.569 195.658 75.679 195.77 68.7 C 195.679 60.427 197.914 52.295 202.22 45.23 C 206.49 38.217 212.569 32.483 219.82 28.63 C 227.317 24.604 235.711 22.54 244.22 22.63 C 250.308 22.601 256.334 23.862 261.9 26.33 Z" style="stroke: rgb(255, 255, 255);"/>
    <path d="M 354.58 40.94 L 311.18 40.94 L 308 56.31 L 347.3 56.31 L 343.9 73.31 L 304.6 73.31 L 301.43 88.91 L 346.13 88.91 L 342.72 106.04 L 276.68 106.04 L 293.11 23.8 L 358 23.8 Z" style="stroke: rgb(255, 255, 255);"/>
    <path class="cls-1" d="M 427.38 23.81 L 448.85 23.81 L 432.43 106.05 L 411 106.05 L 417.34 74.49 L 384.1 74.49 L 377.76 106.05 L 356.29 106.05 L 372.72 23.81 L 394.19 23.81 L 387.5 57.37 L 420.7 57.37 Z" style="stroke: rgb(255, 255, 255);"/>
    <path class="cls-1" d="M 533.91 71.56 C 531.723 82.52 526.797 91.163 519.13 97.49 C 511.463 103.817 501.88 106.987 490.38 107 C 484.366 107.141 478.391 106.002 472.85 103.66 C 463.105 99.629 456.901 89.958 457.3 79.42 C 457.288 76.778 457.563 74.143 458.12 71.56 L 467.74 23.81 L 489.09 23.81 L 479.59 71.56 C 479.272 72.944 479.115 74.36 479.12 75.78 C 479.12 79.78 480.353 82.93 482.82 85.23 C 485.287 87.53 488.62 88.683 492.82 88.69 C 497.433 88.746 501.903 87.093 505.37 84.05 C 509.047 80.797 511.514 76.394 512.37 71.56 L 521.87 23.81 L 543.34 23.81 Z" style="stroke: rgb(255, 255, 255);"/>
    <path class="cls-1" d="M 615.39 68.27 C 617.73 71.452 618.947 75.321 618.85 79.27 C 618.946 84.372 617.31 89.356 614.21 93.41 C 610.819 97.658 606.32 100.887 601.21 102.74 C 595.1 105.027 588.613 106.14 582.09 106.02 L 541.49 106.02 L 558 23.81 L 597 23.81 C 605.373 23.81 611.927 25.413 616.66 28.62 C 621.393 31.827 623.757 36.13 623.75 41.53 C 623.767 46.36 621.984 51.023 618.75 54.61 C 615.342 58.509 610.794 61.238 605.75 62.41 C 609.58 63.097 613.017 65.186 615.39 68.27 Z M 592.92 86.58 C 595.38 84.932 596.837 82.15 596.79 79.19 C 596.848 77.087 595.786 75.111 594 74 C 591.656 72.631 588.961 71.981 586.25 72.13 L 569.69 72.13 L 566.29 89.37 L 582.71 89.37 C 586.943 89.383 590.347 88.453 592.92 86.58 Z M 597.49 53.9 C 599.587 52.194 600.761 49.602 600.66 46.9 C 600.76 45.087 599.973 43.338 598.55 42.21 C 596.788 41.011 594.677 40.434 592.55 40.57 L 576 40.57 L 572.84 56.52 L 589.26 56.52 C 592.229 56.661 595.149 55.731 597.49 53.9 Z" style="stroke: rgb(255, 255, 255);"/>
    <path d="M 94.2 8.46 C 85.193 8.452 79.556 18.197 84.053 26.001 C 88.549 33.805 99.808 33.815 104.317 26.019 C 105.348 24.238 105.89 22.217 105.89 20.16 C 105.89 13.702 100.658 8.466 94.2 8.46 Z" style="stroke: rgb(255, 255, 255);"/>
    <path d="M 86 49.81 C 86 35.451 74.359 23.81 60 23.81 L 45.15 23.81 L 36.3 44.77 L 60 44.77 C 63.876 44.77 66.298 48.966 64.36 52.323 C 63.461 53.88 61.799 54.84 60 54.84 L 24 54.84 L 14.48 75.78 L 52.58 75.78 L 69.58 106.05 L 93.58 106.05 L 74.2 71.52 C 81.54 66.734 85.976 58.573 86 49.81 Z" style="stroke: rgb(255, 255, 255);"/>
  </g>
</svg>