<svg id="Layer_1" data-name="Layer 1" xmlns="http://www.w3.org/2000/svg" viewBox="0 0 931.44 116.55"><defs><style>.cls-1{fill:#0e8000;}.cls-2{fill:#050;}.cls-3{fill:green;}.cls-4{fill:#0a0;}</style></defs><path d="M236.75,99.2l-2.82-12.92H202.26L195.07,99.2H175.59l43.44-73h19.59l18.55,73ZM210.39,71.7h20.42l-5.73-26.47Z"/><path d="M323.43,28.4a34.15,34.15,0,0,1,12.5,9.23L323.43,51a24.2,24.2,0,0,0-7.71-7.14,18.5,18.5,0,0,0-9.38-2.65,21,21,0,0,0-11,3.07,22.3,22.3,0,0,0-8.08,8.39,23.5,23.5,0,0,0-3,11.67,20.76,20.76,0,0,0,2.3,9.79,17.09,17.09,0,0,0,15.52,9.38,24,24,0,0,0,9.64-2.29,34.14,34.14,0,0,0,9.43-6.26l9.89,12a51.39,51.39,0,0,1-15.1,10,41.71,41.71,0,0,1-16.57,3.7,35.88,35.88,0,0,1-18-4.49A31.59,31.59,0,0,1,269,83.73,36,36,0,0,1,264.67,66a39.18,39.18,0,0,1,5.73-20.83A40.61,40.61,0,0,1,286,30.39,44.68,44.68,0,0,1,307.7,25,38.42,38.42,0,0,1,323.43,28.4Z"/><path d="M405.74,41.38H367.19L364.37,55h34.91l-3,15.1h-34.9L358.54,84h39.69l-3,15.21H336.56l14.58-73h57.62Z"/><path class="cls-1" d="M470.39,26.17h19.07l-14.59,73H455.8l5.63-28H431.94l-5.62,28H407.25l14.59-73h19.07L435,56h29.48Z"/><path class="cls-1" d="M565,68.57q-2.93,14.58-13.13,23T526.34,100a37.76,37.76,0,0,1-15.58-3A22.37,22.37,0,0,1,497,75.55a32.33,32.33,0,0,1,.73-7l8.54-42.4h19l-8.44,42.4a16.2,16.2,0,0,0-.42,3.75,10.94,10.94,0,0,0,3.29,8.39c2.19,2.05,5.15,3.07,8.9,3.07a16.59,16.59,0,0,0,11.15-4.11,19.33,19.33,0,0,0,6.25-11.1l8.44-42.4h19.07Z"/><path class="cls-1" d="M637.35,65.65a15.78,15.78,0,0,1,3.07,9.8A20.06,20.06,0,0,1,636.31,88a26.21,26.21,0,0,1-11.52,8.28,45.92,45.92,0,0,1-17,2.92h-36l14.59-73H621q11.15,0,17.45,4.27c4.21,2.85,6.31,6.66,6.31,11.46a17.25,17.25,0,0,1-4.48,11.61,21.93,21.93,0,0,1-11.57,6.93A13.92,13.92,0,0,1,637.35,65.65Zm-20,16.26a7.76,7.76,0,0,0,3.43-6.57,5.22,5.22,0,0,0-2.5-4.58,12.27,12.27,0,0,0-6.87-1.67H596.77l-3,15.32h14.58A15.15,15.15,0,0,0,617.4,81.91Zm4.06-29a7.68,7.68,0,0,0,2.81-6.2,5,5,0,0,0-1.87-4.17,8.51,8.51,0,0,0-5.32-1.46H602.39l-2.81,14.17h14.59A11,11,0,0,0,621.46,52.89Z"/><path class="cls-1" d="M738.91,64.25a29.42,29.42,0,0,1-13.44,11.3L735.68,99.2H714L707.45,79H693.38L689.32,99.2H670.25l14.59-73h32.82q12.5,0,19.22,5.41t6.72,15.21A32.07,32.07,0,0,1,738.91,64.25Zm-42.51-.47h13.75q7,0,10.94-3.65t4-10.11a7.9,7.9,0,0,0-2.65-6.4c-1.77-1.5-4.33-2.24-7.66-2.24H700.88Z"/><path class="cls-1" d="M817.88,68.57q-2.91,14.58-13.12,23T779.23,100a37.79,37.79,0,0,1-15.58-3,22.37,22.37,0,0,1-13.8-21.51,32.33,32.33,0,0,1,.73-7l8.54-42.4h19l-8.43,42.4a16.2,16.2,0,0,0-.42,3.75,10.94,10.94,0,0,0,3.28,8.39q3.29,3.08,8.91,3.07a16.63,16.63,0,0,0,11.15-4.11,19.44,19.44,0,0,0,6.25-11.1l8.44-42.4h19.06Z"/><path class="cls-1" d="M889.15,26.17h17.71l-14.59,73H875.6L851.33,55.44,842.47,99.2H824.66l14.58-73h16.67l24.38,44Z"/><path d="M174.49,12.53a10.39,10.39,0,1,0,10.39,10.39A10.39,10.39,0,0,0,174.49,12.53Z"/><path d="M167.17,49.25A23.1,23.1,0,0,0,144.1,26.18H130.94l-7.87,18.6h21a4.47,4.47,0,1,1,0,8.94h-32l-8.42,18.6h33.83L152.62,99.2h21.32L156.73,68.53A23.05,23.05,0,0,0,167.17,49.25Z"/><path d="M665,89.65a10.39,10.39,0,1,1-10.39-10.39A10.39,10.39,0,0,1,665,89.65"/><path class="cls-2" d="M79.67,99.2H60.61l31.78-73h19.06Z"/><path class="cls-3" d="M53.08,99.2H34l24.82-56,18.36.2Z"/><path class="cls-4" d="M26.81,99.2H7.74L23.69,63l18.82-.49Z"/></svg>