<?xml version="1.0" encoding="utf-8"?>
<svg id="Layer_1" data-name="Layer 1" viewBox="0 0 931.44 116.55" xmlns="http://www.w3.org/2000/svg">
  <defs>
    <style>.cls-1{fill:#0e8000;}</style>
  </defs>
  <path d="M 164.224 106.274 L 161.054 91.724 L 125.384 91.724 L 117.294 106.274 L 95.354 106.274 L 144.274 24.034 L 166.334 24.034 L 187.214 106.274 Z M 134.534 75.274 L 157.534 75.274 L 151.074 45.474 Z" style="stroke: rgb(255, 255, 255); stroke-width: 6px; fill: rgb(201, 201, 201);"/>
  <path d="M 261.824 26.554 C 267.258 28.891 272.082 32.446 275.924 36.944 L 261.844 51.944 C 259.578 48.668 256.613 45.936 253.164 43.944 C 249.977 42.015 246.329 40.978 242.604 40.944 C 238.22 40.923 233.916 42.121 230.174 44.404 C 226.355 46.683 223.217 49.942 221.084 53.844 C 218.845 57.859 217.691 62.387 217.734 66.984 C 217.683 70.806 218.569 74.583 220.314 77.984 C 221.948 81.17 224.424 83.847 227.474 85.724 C 230.578 87.619 234.156 88.597 237.794 88.544 C 241.554 88.452 245.254 87.573 248.654 85.964 C 252.552 84.232 256.137 81.866 259.264 78.964 L 270.414 92.454 C 265.456 97.166 259.7 100.959 253.414 103.654 C 247.547 106.312 241.194 107.732 234.754 107.824 C 227.669 107.96 220.673 106.236 214.464 102.824 C 208.634 99.583 203.834 94.766 200.614 88.924 C 197.276 82.793 195.581 75.903 195.694 68.924 C 195.603 60.651 197.837 52.519 202.144 45.454 C 206.413 38.441 212.493 32.707 219.744 28.854 C 227.241 24.828 235.634 22.764 244.144 22.854 C 250.232 22.825 256.258 24.086 261.824 26.554 Z" style="stroke: rgb(255, 255, 255); stroke-width: 6px; fill: rgb(201, 201, 201);"/>
  <path d="M 354.504 41.164 L 311.104 41.164 L 307.924 56.534 L 347.224 56.534 L 343.824 73.534 L 304.524 73.534 L 301.354 89.134 L 346.054 89.134 L 342.644 106.264 L 276.604 106.264 L 293.034 24.024 L 357.924 24.024 Z" style="stroke: rgb(255, 255, 255); stroke-width: 6px; fill: rgb(201, 201, 201);"/>
  <path class="cls-1" d="M 427.304 24.034 L 448.774 24.034 L 432.354 106.274 L 410.924 106.274 L 417.264 74.714 L 384.024 74.714 L 377.684 106.274 L 356.214 106.274 L 372.644 24.034 L 394.114 24.034 L 387.424 57.594 L 420.624 57.594 Z" style="stroke: rgb(255, 255, 255); stroke-width: 6px; fill: rgb(201, 201, 201);"/>
  <path class="cls-1" d="M 533.834 71.784 C 531.647 82.744 526.72 91.387 519.054 97.714 C 511.387 104.041 501.804 107.211 490.304 107.224 C 484.29 107.365 478.314 106.226 472.774 103.884 C 463.029 99.853 456.825 90.182 457.224 79.644 C 457.212 77.002 457.487 74.367 458.044 71.784 L 467.664 24.034 L 489.014 24.034 L 479.514 71.784 C 479.196 73.168 479.038 74.584 479.044 76.004 C 479.044 80.004 480.277 83.154 482.744 85.454 C 485.21 87.754 488.544 88.907 492.744 88.914 C 497.356 88.97 501.827 87.317 505.294 84.274 C 508.97 81.02 511.437 76.618 512.294 71.784 L 521.794 24.034 L 543.264 24.034 Z" style="stroke: rgb(255, 255, 255); stroke-width: 6px; fill: rgb(201, 201, 201);"/>
  <path class="cls-1" d="M 615.342 69.324 C 617.681 72.506 618.899 76.375 618.802 80.324 C 618.897 85.426 617.262 90.41 614.162 94.464 C 610.771 98.712 606.272 101.941 601.162 103.794 C 595.051 106.081 588.565 107.193 582.042 107.074 L 541.442 107.074 L 557.952 24.864 L 596.952 24.864 C 605.325 24.864 611.878 26.467 616.612 29.674 C 621.345 32.881 623.708 37.184 623.702 42.584 C 623.719 47.414 621.936 52.077 618.702 55.664 C 615.293 59.563 610.746 62.292 605.702 63.464 C 609.532 64.151 612.969 66.24 615.342 69.324 Z M 592.872 87.634 C 595.331 85.986 596.788 83.204 596.742 80.244 C 596.8 78.141 595.738 76.165 593.952 75.054 C 591.607 73.685 588.912 73.035 586.202 73.184 L 569.642 73.184 L 566.242 90.424 L 582.662 90.424 C 586.895 90.437 590.298 89.507 592.872 87.634 Z M 597.442 54.954 C 599.539 53.248 600.713 50.656 600.612 47.954 C 600.712 46.141 599.925 44.392 598.502 43.264 C 596.74 42.065 594.628 41.488 592.502 41.624 L 575.952 41.624 L 572.792 57.574 L 589.212 57.574 C 592.18 57.715 595.101 56.785 597.442 54.954 Z" style="stroke: rgb(255, 255, 255); stroke-width: 6px; fill: rgb(201, 201, 201);"/>
  <path d="M 94.124 8.684 C 85.117 8.676 79.479 18.421 83.976 26.225 C 88.473 34.029 99.731 34.039 104.241 26.243 C 105.271 24.462 105.814 22.441 105.814 20.384 C 105.814 13.926 100.581 8.689 94.124 8.684 Z" style="stroke: rgb(255, 255, 255); stroke-width: 6px; fill: rgb(201, 201, 201);"/>
  <path d="M 85.924 50.034 C 85.924 35.675 74.283 24.034 59.924 24.034 L 45.074 24.034 L 36.224 44.994 L 59.924 44.994 C 63.8 44.994 66.222 49.19 64.284 52.546 C 63.385 54.104 61.722 55.064 59.924 55.064 L 23.924 55.064 L 14.404 76.004 L 52.504 76.004 L 69.504 106.274 L 93.504 106.274 L 74.124 71.744 C 81.464 66.958 85.9 58.797 85.924 50.034 Z" style="stroke: rgb(255, 255, 255); stroke-width: 6px; fill: rgb(201, 201, 201);"/>
  <path d="M164.3,106.05,161.13,91.5H125.46l-8.09,14.55H95.43l48.92-82.24h22.06l20.88,82.24Zm-29.69-31h23l-6.46-29.8Z" style="stroke: rgb(255, 255, 255);"/>
  <path d="M261.9,26.33A38.6,38.6,0,0,1,276,36.72l-14.08,15a26.92,26.92,0,0,0-8.68-8,20.76,20.76,0,0,0-10.56-3,23.65,23.65,0,0,0-12.43,3.46,24.91,24.91,0,0,0-9.09,9.44,26.48,26.48,0,0,0-3.35,13.14,23.42,23.42,0,0,0,2.58,11,19.59,19.59,0,0,0,7.16,7.74,19.27,19.27,0,0,0,10.32,2.82,26.93,26.93,0,0,0,10.86-2.58,38.69,38.69,0,0,0,10.61-7l11.15,13.49a57.64,57.64,0,0,1-17,11.2,46.83,46.83,0,0,1-18.66,4.17,40.51,40.51,0,0,1-20.29-5,35.53,35.53,0,0,1-13.85-13.9,40.47,40.47,0,0,1-4.92-20,44.16,44.16,0,0,1,6.45-23.47,45.72,45.72,0,0,1,17.6-16.6,50.45,50.45,0,0,1,24.4-6A43.12,43.12,0,0,1,261.9,26.33Z" style="stroke: rgb(255, 255, 255);"/>
  <path d="M354.58,40.94h-43.4L308,56.31h39.3l-3.4,17h-39.3l-3.17,15.6h44.7l-3.41,17.13H276.68l16.43-82.24H358Z" style="stroke: rgb(255, 255, 255);"/>
  <path class="cls-1" d="M427.38,23.81h21.47l-16.42,82.24H411l6.34-31.56H384.1l-6.34,31.56H356.29l16.43-82.24h21.47L387.5,57.37h33.2Z" style="stroke: rgb(255, 255, 255);"/>
  <path class="cls-1" d="M533.91,71.56Q530.63,88,519.13,97.49T490.38,107a42.47,42.47,0,0,1-17.53-3.34A25.2,25.2,0,0,1,457.3,79.42a36.49,36.49,0,0,1,.82-7.86l9.62-47.75h21.35l-9.5,47.75a18.56,18.56,0,0,0-.47,4.22q0,6,3.7,9.45t10,3.46a18.68,18.68,0,0,0,12.55-4.64,21.74,21.74,0,0,0,7-12.49l9.5-47.75h21.47Z" style="stroke: rgb(255, 255, 255);"/>
  <path class="cls-1" d="M615.39,68.27a17.83,17.83,0,0,1,3.46,11,22.58,22.58,0,0,1-4.64,14.14,29.5,29.5,0,0,1-13,9.33,51.84,51.84,0,0,1-19.12,3.28h-40.6L558,23.81H597q12.56,0,19.66,4.81t7.09,12.91a19.43,19.43,0,0,1-5,13.08,24.69,24.69,0,0,1-13,7.8A15.65,15.65,0,0,1,615.39,68.27ZM592.92,86.58a8.73,8.73,0,0,0,3.87-7.39A5.92,5.92,0,0,0,594,74a13.86,13.86,0,0,0-7.75-1.87H569.69l-3.4,17.24h16.42Q589.06,89.39,592.92,86.58Zm4.57-32.68a8.61,8.61,0,0,0,3.17-7,5.59,5.59,0,0,0-2.11-4.69,9.58,9.58,0,0,0-6-1.64H576l-3.16,15.95h16.42A12.4,12.4,0,0,0,597.49,53.9Z" style="stroke: rgb(255, 255, 255);"/>
  <path d="M94.2,8.46a11.7,11.7,0,1,0,11.69,11.7A11.7,11.7,0,0,0,94.2,8.46Z" style="stroke: rgb(255, 255, 255);"/>
  <path d="M86,49.81a26,26,0,0,0-26-26H45.15L36.3,44.77H60a5,5,0,0,1,0,10.07H24L14.48,75.78h38.1l17,30.27h24L74.2,71.52A26,26,0,0,0,86,49.81Z" style="stroke: rgb(255, 255, 255);"/>
</svg>