<?xml version="1.0" encoding="utf-8"?>
<svg id="Layer_1" data-name="Layer 1" viewBox="0 0 931.44 116.55" xmlns="http://www.w3.org/2000/svg">
  <defs>
    <style>.cls-1{fill:#0e8000;}</style>
  </defs>
  <path d="M164.3,106.05,161.13,91.5H125.46l-8.09,14.55H95.43l48.92-82.24h22.06l20.88,82.24Zm-29.69-31h23l-6.46-29.8Z"/>
  <path d="M261.9,26.33A38.6,38.6,0,0,1,276,36.72l-14.08,15a26.92,26.92,0,0,0-8.68-8,20.76,20.76,0,0,0-10.56-3,23.65,23.65,0,0,0-12.43,3.46,24.91,24.91,0,0,0-9.09,9.44,26.48,26.48,0,0,0-3.35,13.14,23.42,23.42,0,0,0,2.58,11,19.59,19.59,0,0,0,7.16,7.74,19.27,19.27,0,0,0,10.32,2.82,26.93,26.93,0,0,0,10.86-2.58,38.69,38.69,0,0,0,10.61-7l11.15,13.49a57.64,57.64,0,0,1-17,11.2,46.83,46.83,0,0,1-18.66,4.17,40.51,40.51,0,0,1-20.29-5,35.53,35.53,0,0,1-13.85-13.9,40.47,40.47,0,0,1-4.92-20,44.16,44.16,0,0,1,6.45-23.47,45.72,45.72,0,0,1,17.6-16.6,50.45,50.45,0,0,1,24.4-6A43.12,43.12,0,0,1,261.9,26.33Z"/>
  <path d="M354.58,40.94h-43.4L308,56.31h39.3l-3.4,17h-39.3l-3.17,15.6h44.7l-3.41,17.13H276.68l16.43-82.24H358Z"/>
  <path class="cls-1" d="M427.38,23.81h21.47l-16.42,82.24H411l6.34-31.56H384.1l-6.34,31.56H356.29l16.43-82.24h21.47L387.5,57.37h33.2Z"/>
  <path class="cls-1" d="M533.91,71.56Q530.63,88,519.13,97.49T490.38,107a42.47,42.47,0,0,1-17.53-3.34A25.2,25.2,0,0,1,457.3,79.42a36.49,36.49,0,0,1,.82-7.86l9.62-47.75h21.35l-9.5,47.75a18.56,18.56,0,0,0-.47,4.22q0,6,3.7,9.45t10,3.46a18.68,18.68,0,0,0,12.55-4.64,21.74,21.74,0,0,0,7-12.49l9.5-47.75h21.47Z"/>
  <path class="cls-1" d="M615.39,68.27a17.83,17.83,0,0,1,3.46,11,22.58,22.58,0,0,1-4.64,14.14,29.5,29.5,0,0,1-13,9.33,51.84,51.84,0,0,1-19.12,3.28h-40.6L558,23.81H597q12.56,0,19.66,4.81t7.09,12.91a19.43,19.43,0,0,1-5,13.08,24.69,24.69,0,0,1-13,7.8A15.65,15.65,0,0,1,615.39,68.27ZM592.92,86.58a8.73,8.73,0,0,0,3.87-7.39A5.92,5.92,0,0,0,594,74a13.86,13.86,0,0,0-7.75-1.87H569.69l-3.4,17.24h16.42Q589.06,89.39,592.92,86.58Zm4.57-32.68a8.61,8.61,0,0,0,3.17-7,5.59,5.59,0,0,0-2.11-4.69,9.58,9.58,0,0,0-6-1.64H576l-3.16,15.95h16.42A12.4,12.4,0,0,0,597.49,53.9Z"/>
  <path d="M94.2,8.46a11.7,11.7,0,1,0,11.69,11.7A11.7,11.7,0,0,0,94.2,8.46Z"/>
  <path d="M86,49.81a26,26,0,0,0-26-26H45.15L36.3,44.77H60a5,5,0,0,1,0,10.07H24L14.48,75.78h38.1l17,30.27h24L74.2,71.52A26,26,0,0,0,86,49.81Z"/>
</svg>