<svg id="Layer_1" data-name="Layer 1" xmlns="http://www.w3.org/2000/svg" viewBox="0 0 931.44 116.55"><defs><style>.cls-1{fill:#fff;}.cls-2{fill:none;stroke:#fff;stroke-miterlimit:10;}.cls-3{fill:#0e8000;}.cls-4{fill:#050;}.cls-5{fill:green;}.cls-6{fill:#0a0;}</style></defs><path class="cls-1" d="M238.62,26.17l18.55,73H236.75l-2.82-12.92H202.26L195.07,99.2H175.59l43.44-73h19.59M210.39,71.7h20.42l-5.73-26.47L210.39,71.7m29-46.53H218.46l-.29.48-43.44,73-.9,1.51h21.83l.28-.51,6.91-12.41h30.28l2.64,12.13.17.79h22.51L258.14,99l-18.55-73-.19-.75ZM212.08,70.7,224.66,48l4.91,22.66Z"/><path class="cls-1" d="M307.7,25a38.42,38.42,0,0,1,15.73,3.38,34.15,34.15,0,0,1,12.5,9.23L323.43,51a24.2,24.2,0,0,0-7.71-7.14,18.5,18.5,0,0,0-9.38-2.65,21,21,0,0,0-11,3.07,22.3,22.3,0,0,0-8.08,8.39,23.5,23.5,0,0,0-3,11.67,20.76,20.76,0,0,0,2.3,9.79,17.09,17.09,0,0,0,15.52,9.38,24,24,0,0,0,9.64-2.29,34.14,34.14,0,0,0,9.43-6.26l9.89,12a51.39,51.39,0,0,1-15.1,10,41.71,41.71,0,0,1-16.57,3.7,35.88,35.88,0,0,1-18-4.49A31.59,31.59,0,0,1,269,83.73,36,36,0,0,1,264.67,66a39.18,39.18,0,0,1,5.73-20.83A40.61,40.61,0,0,1,286,30.39,44.68,44.68,0,0,1,307.7,25m0-1a45.82,45.82,0,0,0-22.15,5.49,41.76,41.76,0,0,0-16,15.1A40.3,40.3,0,0,0,263.67,66a37,37,0,0,0,4.5,18.25A32.73,32.73,0,0,0,280.84,97a37.22,37.22,0,0,0,18.52,4.61,42.76,42.76,0,0,0,17-3.79,52.35,52.35,0,0,0,15.4-10.14l.68-.64-.59-.72-9.9-12-.68-.82-.77.72a33.5,33.5,0,0,1-9.16,6.07,22.87,22.87,0,0,1-9.23,2.21,16.21,16.21,0,0,1-8.64-2.35,16.48,16.48,0,0,1-6-6.49,20,20,0,0,1-2.18-9.33,22.56,22.56,0,0,1,2.85-11.18,21.37,21.37,0,0,1,7.71-8,20.11,20.11,0,0,1,10.53-2.93,17.65,17.65,0,0,1,8.88,2.52,23.17,23.17,0,0,1,7.39,6.84l.7,1,.85-.89,12.5-13.34.61-.65L336.7,37a35.36,35.36,0,0,0-12.86-9.49A39.62,39.62,0,0,0,307.7,24Z"/><path class="cls-1" d="M408.76,26.17l-3,15.21H367.19L364.37,55h34.91l-3,15.1h-34.9L358.54,84h39.69l-3,15.21H336.56l14.58-73h57.62m1.22-1H350.32l-.16.8L335.57,99l-.23,1.2H396l.16-.81,3-15.21.24-1.19H359.76l2.41-11.86h34.9l.17-.8,3-15.11L400.5,54H365.6L368,42.38h38.56l.16-.81,3-15.21.24-1.19Z"/><path class="cls-1" d="M489.46,26.17l-14.59,73H455.8l5.63-28H431.94l-5.62,28H407.25l14.59-73h19.07L435,56h29.48l5.94-29.79h19.07m1.22-1H469.57l-.16.8-5.78,29H436.18l5.71-28.6.23-1.19H421l-.16.8L406.27,99l-.24,1.2h21.11l.16-.8,5.46-27.23h27.45L454.82,99l-.24,1.2h21.11l.16-.8,14.59-73,.24-1.19Z"/><path class="cls-1" d="M573.43,26.17,565,68.57q-2.93,14.58-13.13,23T526.34,100a37.76,37.76,0,0,1-15.58-3A22.37,22.37,0,0,1,497,75.55a32.33,32.33,0,0,1,.73-7l8.54-42.4h19l-8.44,42.4a16.2,16.2,0,0,0-.42,3.75,10.94,10.94,0,0,0,3.29,8.39c2.19,2.05,5.15,3.07,8.9,3.07a16.59,16.59,0,0,0,11.15-4.11,19.33,19.33,0,0,0,6.25-11.1l8.44-42.4h19.07m1.22-1H553.54l-.16.8-8.44,42.4A18.44,18.44,0,0,1,539,78.91a15.67,15.67,0,0,1-10.5,3.87c-3.46,0-6.23-.94-8.22-2.8a9.9,9.9,0,0,1-3-7.66,15.3,15.3,0,0,1,.4-3.52l8.44-42.44.24-1.19h-21l-.16.8-8.54,42.4a33.48,33.48,0,0,0-.75,7.18,24.46,24.46,0,0,0,3.75,13.57A24.17,24.17,0,0,0,510.35,98a39.09,39.09,0,0,0,16,3c10.4,0,19.2-2.91,26.16-8.66S564,78.68,566,68.77l8.44-42.41.24-1.19Z"/><path class="cls-1" d="M621,26.17q11.15,0,17.45,4.27c4.21,2.85,6.31,6.66,6.31,11.46a17.25,17.25,0,0,1-4.48,11.61,21.93,21.93,0,0,1-11.57,6.93,13.92,13.92,0,0,1,8.6,5.21,15.78,15.78,0,0,1,3.07,9.8A20.06,20.06,0,0,1,636.31,88a26.21,26.21,0,0,1-11.52,8.28,45.92,45.92,0,0,1-17,2.92h-36l14.59-73H621M599.58,55.23h14.59a11,11,0,0,0,7.29-2.34,7.68,7.68,0,0,0,2.81-6.2,5,5,0,0,0-1.87-4.17,8.51,8.51,0,0,0-5.32-1.46H602.39l-2.81,14.17m-5.83,29.18h14.58a15.15,15.15,0,0,0,9.07-2.5,7.76,7.76,0,0,0,3.43-6.57,5.22,5.22,0,0,0-2.5-4.58,12.27,12.27,0,0,0-6.87-1.67H596.77l-3,15.32M621,25.17H585.53l-.16.8L570.78,99l-.24,1.2h37.27a47.25,47.25,0,0,0,17.35-3,27.28,27.28,0,0,0,11.94-8.6,21.1,21.1,0,0,0,4.32-13.16,16.82,16.82,0,0,0-3.27-10.4,14.37,14.37,0,0,0-6-4.62,22.5,22.5,0,0,0,9-6.26A18.28,18.28,0,0,0,645.8,41.9a14.22,14.22,0,0,0-6.74-12.29c-4.36-2.95-10.42-4.44-18-4.44ZM603.21,42.06h13.87a7.55,7.55,0,0,1,4.7,1.25,4,4,0,0,1,1.49,3.38,6.65,6.65,0,0,1-2.45,5.43,10.1,10.1,0,0,1-6.65,2.11H600.8l2.41-12.17Zm-5.62,28h13.87a11.34,11.34,0,0,1,6.32,1.5,4.25,4.25,0,0,1,2.05,3.75,6.76,6.76,0,0,1-3,5.76,14.2,14.2,0,0,1-8.48,2.31H595l2.63-13.32Z"/><path class="cls-1" d="M717.66,26.17q12.5,0,19.22,5.41t6.72,15.21a32.07,32.07,0,0,1-4.69,17.46,29.42,29.42,0,0,1-13.44,11.3L735.68,99.2H714L707.45,79H693.38L689.32,99.2H670.25l14.59-73h32.82M696.4,63.78h13.75q7,0,10.94-3.65t4-10.11a7.9,7.9,0,0,0-2.65-6.4c-1.77-1.5-4.33-2.24-7.66-2.24H700.88l-4.48,22.4m21.26-38.61H684l-.16.8L669.27,99l-.24,1.2h21.11l.16-.8L694.2,80h12.52l6.34,19.52.22.69H737.2l-.6-1.4-9.82-22.75a30.19,30.19,0,0,0,13-11.27,33.25,33.25,0,0,0,4.84-18c0-6.81-2.39-12.19-7.09-16s-11.32-5.63-19.85-5.63Zm-16,17.21h13c3.07,0,5.43.67,7,2a6.9,6.9,0,0,1,2.3,5.64c0,4.06-1.19,7.12-3.63,9.37s-5.89,3.39-10.27,3.39H697.62l4.08-20.4Z"/><path class="cls-1" d="M826.32,26.17l-8.44,42.4q-2.91,14.58-13.12,23T779.23,100a37.79,37.79,0,0,1-15.58-3,22.37,22.37,0,0,1-13.8-21.51,32.33,32.33,0,0,1,.73-7l8.54-42.4h19l-8.43,42.4a16.2,16.2,0,0,0-.42,3.75,10.94,10.94,0,0,0,3.28,8.39q3.29,3.08,8.91,3.07a16.63,16.63,0,0,0,11.15-4.11,19.44,19.44,0,0,0,6.25-11.1l8.44-42.4h19.06m1.22-1h-21.1l-.16.8-8.44,42.4a18.45,18.45,0,0,1-5.93,10.54,15.67,15.67,0,0,1-10.49,3.87c-3.47,0-6.24-.94-8.23-2.8a9.92,9.92,0,0,1-3-7.66,15.31,15.31,0,0,1,.39-3.52l8.45-42.44.23-1.19h-21l-.16.8-8.54,42.4a33.48,33.48,0,0,0-.75,7.18A23.39,23.39,0,0,0,763.25,98a39,39,0,0,0,16,3c10.4,0,19.2-2.91,26.16-8.66s11.49-13.69,13.47-23.6l8.44-42.41.24-1.19Z"/><path class="cls-1" d="M906.86,26.17l-14.59,73H875.6L851.33,55.44,842.47,99.2H824.66l14.58-73h16.67l24.38,44,8.86-44h17.71m1.22-1H888.33l-.16.8-8.32,41.3L856.79,25.68l-.29-.51H838.42l-.16.8L823.68,99l-.24,1.2h19.85l.16-.8,8.32-41.1,23,41.38.28.52h18.08l.16-.8,14.59-73,.24-1.19Z"/><path class="cls-1" d="M174.49,12.53a10.39,10.39,0,1,1-10.38,10.39,10.39,10.39,0,0,1,10.38-10.39m0-1a11.39,11.39,0,1,0,11.39,11.39,11.39,11.39,0,0,0-11.39-11.39Z"/><path class="cls-1" d="M144.1,26.18a23.05,23.05,0,0,1,12.63,42.35L173.94,99.2H152.62L137.53,72.32H103.7l8.42-18.6h32a4.47,4.47,0,1,0,0-8.94h-21l7.87-18.6H144.1m0-1H130.27l-.25.61-7.87,18.6-.58,1.39H144.1a3.47,3.47,0,1,1,0,6.94H111.48l-.27.59L102.79,71.9l-.64,1.42H137l14.8,26.37.28.51h23.62l-.84-1.49L158.05,68.84a24.05,24.05,0,0,0-14-43.66Z"/><path class="cls-2" d="M665,89.65a10.39,10.39,0,1,1-10.39-10.39A10.39,10.39,0,0,1,665,89.65"/><path class="cls-1" d="M111.45,26.17l-31.78,73H60.61l31.78-73h19.06m1.53-1H91.73l-.26.6-31.78,73-.61,1.4H80.33l.26-.6,31.78-73,.61-1.39Z"/><path class="cls-1" d="M58.83,43.15l18.36.2L53.08,99.2H34l24.82-56m-.65-1-.26.61-24.82,56-.62,1.41H53.74l.26-.6L78.11,43.75l.59-1.38-1.5,0-18.36-.2Z"/><path class="cls-1" d="M42.51,62.47,26.81,99.2H7.74L23.69,63l18.82-.49m1.53-1-1.56,0L23.67,62H23l-.25.59L6.83,98.8l-.62,1.4H27.47l.26-.61,15.7-36.73L44,61.43Z"/><path d="M236.75,99.2l-2.82-12.92H202.26L195.07,99.2H175.59l43.44-73h19.59l18.55,73ZM210.39,71.7h20.42l-5.73-26.47Z"/><path d="M323.43,28.4a34.15,34.15,0,0,1,12.5,9.23L323.43,51a24.2,24.2,0,0,0-7.71-7.14,18.5,18.5,0,0,0-9.38-2.65,21,21,0,0,0-11,3.07,22.3,22.3,0,0,0-8.08,8.39,23.5,23.5,0,0,0-3,11.67,20.76,20.76,0,0,0,2.3,9.79,17.09,17.09,0,0,0,15.52,9.38,24,24,0,0,0,9.64-2.29,34.14,34.14,0,0,0,9.43-6.26l9.89,12a51.39,51.39,0,0,1-15.1,10,41.71,41.71,0,0,1-16.57,3.7,35.88,35.88,0,0,1-18-4.49A31.59,31.59,0,0,1,269,83.73,36,36,0,0,1,264.67,66a39.18,39.18,0,0,1,5.73-20.83A40.61,40.61,0,0,1,286,30.39,44.68,44.68,0,0,1,307.7,25,38.42,38.42,0,0,1,323.43,28.4Z"/><path d="M405.74,41.38H367.19L364.37,55h34.91l-3,15.1h-34.9L358.54,84h39.69l-3,15.21H336.56l14.58-73h57.62Z"/><path class="cls-3" d="M470.39,26.17h19.07l-14.59,73H455.8l5.63-28H431.94l-5.62,28H407.25l14.59-73h19.07L435,56h29.48Z"/><path class="cls-3" d="M565,68.57q-2.93,14.58-13.13,23T526.34,100a37.76,37.76,0,0,1-15.58-3A22.37,22.37,0,0,1,497,75.55a32.33,32.33,0,0,1,.73-7l8.54-42.4h19l-8.44,42.4a16.2,16.2,0,0,0-.42,3.75,10.94,10.94,0,0,0,3.29,8.39c2.19,2.05,5.15,3.07,8.9,3.07a16.59,16.59,0,0,0,11.15-4.11,19.33,19.33,0,0,0,6.25-11.1l8.44-42.4h19.07Z"/><path class="cls-3" d="M637.35,65.65a15.78,15.78,0,0,1,3.07,9.8A20.06,20.06,0,0,1,636.31,88a26.21,26.21,0,0,1-11.52,8.28,45.92,45.92,0,0,1-17,2.92h-36l14.59-73H621q11.15,0,17.45,4.27c4.21,2.85,6.31,6.66,6.31,11.46a17.25,17.25,0,0,1-4.48,11.61,21.93,21.93,0,0,1-11.57,6.93A13.92,13.92,0,0,1,637.35,65.65Zm-20,16.26a7.76,7.76,0,0,0,3.43-6.57,5.22,5.22,0,0,0-2.5-4.58,12.27,12.27,0,0,0-6.87-1.67H596.77l-3,15.32h14.58A15.15,15.15,0,0,0,617.4,81.91Zm4.06-29a7.68,7.68,0,0,0,2.81-6.2,5,5,0,0,0-1.87-4.17,8.51,8.51,0,0,0-5.32-1.46H602.39l-2.81,14.17h14.59A11,11,0,0,0,621.46,52.89Z"/><path class="cls-3" d="M738.91,64.25a29.42,29.42,0,0,1-13.44,11.3L735.68,99.2H714L707.45,79H693.38L689.32,99.2H670.25l14.59-73h32.82q12.5,0,19.22,5.41t6.72,15.21A32.07,32.07,0,0,1,738.91,64.25Zm-42.51-.47h13.75q7,0,10.94-3.65t4-10.11a7.9,7.9,0,0,0-2.65-6.4c-1.77-1.5-4.33-2.24-7.66-2.24H700.88Z"/><path class="cls-3" d="M817.88,68.57q-2.91,14.58-13.12,23T779.23,100a37.79,37.79,0,0,1-15.58-3,22.37,22.37,0,0,1-13.8-21.51,32.33,32.33,0,0,1,.73-7l8.54-42.4h19l-8.43,42.4a16.2,16.2,0,0,0-.42,3.75,10.94,10.94,0,0,0,3.28,8.39q3.29,3.08,8.91,3.07a16.63,16.63,0,0,0,11.15-4.11,19.44,19.44,0,0,0,6.25-11.1l8.44-42.4h19.06Z"/><path class="cls-3" d="M889.15,26.17h17.71l-14.59,73H875.6L851.33,55.44,842.47,99.2H824.66l14.58-73h16.67l24.38,44Z"/><path d="M174.49,12.53a10.39,10.39,0,1,0,10.39,10.39A10.39,10.39,0,0,0,174.49,12.53Z"/><path d="M167.17,49.25A23.1,23.1,0,0,0,144.1,26.18H130.94l-7.87,18.6h21a4.47,4.47,0,1,1,0,8.94h-32l-8.42,18.6h33.83L152.62,99.2h21.32L156.73,68.53A23.05,23.05,0,0,0,167.17,49.25Z"/><path d="M665,89.65a10.39,10.39,0,1,1-10.39-10.39A10.39,10.39,0,0,1,665,89.65"/><path class="cls-4" d="M79.67,99.2H60.61l31.78-73h19.06Z"/><path class="cls-5" d="M53.08,99.2H34l24.82-56,18.36.2Z"/><path class="cls-6" d="M26.81,99.2H7.74L23.69,63l18.82-.49Z"/></svg>