<?xml version="1.0" encoding="utf-8"?><svg version="1.1" id="Layer_1" xmlns="http://www.w3.org/2000/svg" xmlns:xlink="http://www.w3.org/1999/xlink" x="0px" y="0px" viewBox="0 0 122.88 61.63" style="enable-background:new 0 0 122.88 61.63" xml:space="preserve"><style type="text/css">.st0{fill-rule:evenodd;clip-rule:evenodd;}</style><g><path class="st0" d="M30.81,0h61.25c16.95,0,30.81,13.87,30.81,30.81l0,0c0,16.95-13.87,30.81-30.81,30.81H30.81 C13.87,61.63,0,47.76,0,30.81l0,0C0,13.87,13.87,0,30.81,0L30.81,0z M30.92,12.09h3.26c0.66,0,1.25-0.4,1.5-1 c0.44-1.07-0.34-2.25-1.5-2.25h-3.26l-0.14,0l-0.14,0l-0.14,0l-0.14,0l-0.14,0l-0.14,0l-0.14,0.01l-0.14,0.01l-0.14,0.01 l-0.14,0.01l-0.14,0.01L29.26,8.9l-0.14,0.01l-0.14,0.01l-0.07,0.01C27.3,9.1,26.88,11.23,28.33,12c0.28,0.14,0.58,0.2,0.9,0.17 l0.05,0l0.12-0.01l0.12-0.01l0.12-0.01l0.12-0.01l0.12-0.01l0.12-0.01l0.12-0.01l0.12,0l0.12,0l0.12,0l0.12,0l0.12,0l0.12,0 L30.92,12.09L30.92,12.09z M20.84,15.1c0.52-0.35,0.81-0.97,0.72-1.59c-0.17-1.18-1.51-1.79-2.51-1.13l-0.04,0.03l-0.11,0.07 l-0.11,0.07l-0.11,0.07l-0.11,0.07l-0.11,0.07l-0.11,0.08l-0.11,0.08l-0.11,0.08l-0.1,0.08l-0.1,0.08l-0.11,0.08l-0.1,0.08 l-0.1,0.08l-0.1,0.08l-0.1,0.08l-0.1,0.08l-0.1,0.08l-0.1,0.08l-0.1,0.08l-0.1,0.08l-0.1,0.08l-0.1,0.09l-0.1,0.09l-0.1,0.09 l-0.1,0.09l-0.1,0.09l-0.05,0.05c-0.47,0.43-0.64,1.1-0.44,1.71c0.37,1.12,1.78,1.48,2.65,0.69l0.04-0.03l0.08-0.07l0.08-0.07 l0.08-0.07l0.08-0.07l0.08-0.07l0.09-0.07l0.08-0.07l0.09-0.07l0.09-0.07l0.09-0.07l0.09-0.07l0.09-0.07l0.09-0.07l0.09-0.07 l0.09-0.07l0.09-0.07l0.09-0.07l0.09-0.07l0.09-0.07l0.09-0.06l0.09-0.06l0.09-0.06l0.09-0.06l0.09-0.06l0.09-0.06l0.09-0.06 L20.84,15.1L20.84,15.1z M13.53,24.34c0.48-1.39-0.93-2.65-2.25-2.01c-0.39,0.2-0.66,0.5-0.81,0.91l0,0.01l-0.04,0.13l-0.04,0.13 l-0.04,0.13l-0.04,0.13l-0.04,0.13l-0.04,0.13l-0.04,0.13l-0.04,0.13l-0.04,0.13l-0.04,0.13l-0.04,0.13l-0.04,0.13l-0.04,0.13 l-0.03,0.13l-0.03,0.13l-0.03,0.13l-0.03,0.13l-0.03,0.13l-0.03,0.13l-0.03,0.13l-0.03,0.13l-0.03,0.13L9.63,26.2L9.6,26.33 l-0.03,0.13L9.55,26.6l-0.01,0.03c-0.26,1.41,1.32,2.44,2.51,1.64c0.37-0.25,0.62-0.63,0.7-1.07l0-0.01l0.02-0.11l0.02-0.11 l0.02-0.11l0.02-0.11l0.02-0.11l0.02-0.11l0.03-0.11l0.03-0.11l0.03-0.11L13,26.08l0.03-0.11l0.03-0.11l0.03-0.11l0.03-0.11 l0.03-0.11l0.03-0.11l0.03-0.11l0.03-0.11l0.03-0.11l0.03-0.11l0.03-0.11l0.04-0.11l0.04-0.11l0.04-0.11l0.04-0.11L13.53,24.34 L13.53,24.34L13.53,24.34z M13.29,36.08c-0.37-1.12-1.72-1.5-2.63-0.73c-0.49,0.44-0.67,1.09-0.48,1.72l0.02,0.08l0.04,0.13 l0.04,0.13l0.04,0.13l0.04,0.13l0.04,0.13l0.04,0.12l0.05,0.13l0.05,0.13l0.05,0.12l0.05,0.12l0.05,0.12l0.05,0.12l0.05,0.12 l0.05,0.12l0.05,0.12l0.05,0.12l0.05,0.12l0.05,0.12l0.05,0.12l0.05,0.12l0.06,0.12l0.06,0.12l0.06,0.12l0.06,0.12l0.06,0.12 l0.05,0.11c0.69,1.36,2.72,1.1,3.04-0.4c0.08-0.37,0.03-0.74-0.14-1.07l-0.05-0.09l-0.05-0.1l-0.05-0.1l-0.05-0.1l-0.05-0.1 l-0.05-0.1l-0.05-0.1l-0.05-0.1l-0.05-0.1l-0.04-0.1l-0.04-0.1l-0.04-0.1l-0.04-0.1l-0.04-0.1l-0.04-0.1l-0.04-0.1l-0.04-0.11 l-0.04-0.11l-0.04-0.11l-0.04-0.11l-0.04-0.11l-0.04-0.11l-0.04-0.11l-0.04-0.11l-0.04-0.11l-0.03-0.11L13.29,36.08L13.29,36.08z M20.21,45.6c-1.03-0.74-2.51-0.04-2.57,1.24c-0.04,0.56,0.23,1.09,0.68,1.42l0.04,0.03l0.11,0.08l0.11,0.07l0.11,0.07l0.11,0.07 l0.11,0.07l0.11,0.07l0.11,0.07l0.11,0.07l0.11,0.07l0.11,0.07l0.11,0.07l0.11,0.07l0.11,0.07l0.11,0.07l0.11,0.07l0.11,0.07 l0.11,0.06l0.12,0.06l0.11,0.06l0.12,0.06l0.12,0.06l0.12,0.06l0.12,0.06l0.12,0.06l0.12,0.06l0.12,0.06l0.05,0.02 c1.39,0.67,2.84-0.76,2.19-2.16c-0.16-0.34-0.42-0.59-0.75-0.76l-0.03-0.02l-0.1-0.05l-0.1-0.05l-0.1-0.05l-0.1-0.05l-0.1-0.05 l-0.1-0.05l-0.1-0.05l-0.1-0.05l-0.1-0.05l-0.1-0.06l-0.1-0.06l-0.1-0.06l-0.1-0.06l-0.1-0.06l-0.09-0.06l-0.09-0.06l-0.1-0.06 l-0.09-0.06l-0.09-0.06l-0.09-0.06l-0.09-0.06l-0.09-0.06l-0.09-0.06l-0.09-0.06l-0.09-0.06l-0.09-0.06L20.21,45.6L20.21,45.6z M31.49,49.05c-0.66,0-1.25,0.4-1.5,1c-0.44,1.07,0.34,2.25,1.5,2.25h3.26c0.66,0,1.25-0.4,1.5-1c0.44-1.07-0.34-2.25-1.5-2.25 H31.49L31.49,49.05z M44.52,49.05c-0.66,0-1.25,0.4-1.5,1c-0.44,1.07,0.34,2.25,1.5,2.25h3.26c0.66,0,1.25-0.4,1.5-1 c0.44-1.07-0.34-2.25-1.5-2.25H44.52L44.52,49.05z M57.54,49.05c-0.66,0-1.25,0.4-1.5,1c-0.44,1.07,0.34,2.25,1.5,2.25h3.26 c0.66,0,1.25-0.4,1.5-1c0.44-1.07-0.34-2.25-1.5-2.25H57.54L57.54,49.05z M70.56,49.05c-0.66,0-1.25,0.4-1.5,1 c-0.44,1.07,0.34,2.25,1.5,2.25h3.26c0.66,0,1.25-0.4,1.5-1c0.44-1.07-0.34-2.25-1.5-2.25H70.56L70.56,49.05z M83.58,49.05 c-0.66,0-1.25,0.4-1.5,1c-0.44,1.07,0.34,2.25,1.5,2.25h3.26c0.66,0,1.25-0.4,1.5-1c0.44-1.07-0.34-2.25-1.5-2.25H83.58 L83.58,49.05z M96.24,48.65c-1.53,0.33-1.76,2.41-0.34,3.07c0.32,0.15,0.68,0.19,1.02,0.11l0.01,0l0.13-0.03l0.13-0.03l0.13-0.03 l0.13-0.03l0.13-0.03l0.13-0.03l0.13-0.03l0.13-0.03l0.13-0.03l0.13-0.04l0.13-0.04l0.13-0.04l0.13-0.04l0.13-0.04l0.13-0.04 L99,51.28l0.13-0.04l0.13-0.04l0.13-0.04l0.13-0.04l0.13-0.04l0.12-0.04l0.13-0.05l0.13-0.05l0.12-0.05l0.12-0.05l0.04-0.02 c1.5-0.6,1.31-2.77-0.27-3.11c-0.32-0.06-0.62-0.04-0.93,0.08l-0.02,0.01l-0.11,0.04l-0.11,0.04l-0.11,0.04l-0.11,0.04L98.54,48 l-0.11,0.04l-0.11,0.04l-0.11,0.04l-0.11,0.04l-0.11,0.03l-0.11,0.03l-0.11,0.03l-0.11,0.03l-0.11,0.03l-0.11,0.03l-0.11,0.03 l-0.11,0.03l-0.11,0.03l-0.11,0.03l-0.11,0.03l-0.11,0.03l-0.11,0.03l-0.11,0.03l-0.11,0.03l-0.11,0.02L96.24,48.65L96.24,48.65 L96.24,48.65z M106.36,42.67c-0.94,1.08-0.12,2.76,1.32,2.69c0.45-0.03,0.84-0.22,1.14-0.56l0.02-0.02l0.09-0.1l0.08-0.1l0.08-0.1 l0.08-0.1l0.08-0.1l0.08-0.1l0.08-0.1l0.08-0.1l0.08-0.1l0.08-0.1l0.08-0.1l0.08-0.1l0.08-0.1l0.08-0.11l0.08-0.11l0.08-0.11 l0.08-0.11l0.07-0.11l0.07-0.11l0.07-0.11l0.07-0.11l0.07-0.11l0.07-0.11l0.07-0.11l0.07-0.11l0.07-0.11l0.05-0.08 c0.81-1.32-0.51-2.93-1.97-2.38c-0.33,0.13-0.62,0.36-0.81,0.67l-0.04,0.06l-0.06,0.09l-0.06,0.09l-0.06,0.09l-0.06,0.09 l-0.06,0.09l-0.06,0.09l-0.06,0.09l-0.06,0.09l-0.06,0.09l-0.06,0.09l-0.07,0.09l-0.06,0.09l-0.07,0.09l-0.07,0.09l-0.07,0.09 l-0.07,0.09l-0.07,0.09l-0.07,0.09l-0.07,0.09l-0.07,0.09l-0.07,0.09l-0.07,0.09l-0.07,0.09l-0.07,0.09l-0.07,0.08l-0.07,0.08 L106.36,42.67L106.36,42.67z M110.86,31.81c-0.04,0.67,0.32,1.29,0.93,1.58c1.03,0.49,2.25-0.23,2.32-1.37l0-0.06l0.01-0.14 l0.01-0.14l0.01-0.14l0.01-0.14l0-0.14l0-0.14l0-0.14l0-0.14l0-0.14l0-0.14v0l0-0.14l0-0.14l0-0.14l0-0.14l0-0.14l0-0.14 l-0.01-0.14l-0.01-0.14l-0.01-0.14l-0.01-0.14l-0.01-0.14l-0.01-0.14l-0.01-0.14l-0.01-0.14l-0.01-0.13 c-0.17-1.62-2.31-2.03-3.07-0.59c-0.14,0.28-0.2,0.58-0.17,0.9l0.01,0.1l0.01,0.12l0.01,0.12l0.01,0.12l0.01,0.12l0.01,0.12 l0.01,0.12l0.01,0.12l0.01,0.12l0,0.12l0,0.12l0,0.12l0,0.12l0,0.12l0,0.12v0l0,0.12l0,0.12l0,0.12l0,0.12l0,0.12l0,0.12 l-0.01,0.12l-0.01,0.12l-0.01,0.12l-0.01,0.12L110.86,31.81L110.86,31.81z M107.86,20.45c0.86,1.28,2.85,0.76,2.98-0.78 c0.02-0.37-0.06-0.71-0.27-1.03l-0.06-0.1l-0.07-0.11l-0.07-0.11l-0.07-0.11l-0.08-0.11l-0.08-0.11l-0.08-0.11l-0.08-0.11 l-0.08-0.11l-0.08-0.1l-0.08-0.1l-0.08-0.1l-0.08-0.1l-0.08-0.1l-0.08-0.1l-0.08-0.1l-0.08-0.1l-0.08-0.1l-0.08-0.1l-0.08-0.1 l-0.08-0.1l-0.08-0.1l-0.09-0.1l-0.09-0.1l-0.09-0.1l-0.09-0.1l-0.09-0.09c-0.43-0.47-1.1-0.65-1.71-0.44 c-1.12,0.37-1.48,1.78-0.69,2.65l0.07,0.08l0.07,0.08l0.07,0.08l0.07,0.08l0.07,0.08l0.07,0.08l0.07,0.08l0.07,0.09l0.07,0.09 l0.07,0.08l0.07,0.09l0.07,0.09l0.07,0.09l0.07,0.09l0.07,0.09l0.07,0.09l0.07,0.09l0.07,0.09l0.07,0.09l0.07,0.09l0.06,0.09 l0.06,0.09l0.06,0.09l0.06,0.09l0.06,0.09l0.06,0.09L107.86,20.45L107.86,20.45z M98.61,13.16c1.47,0.51,2.75-1.13,1.9-2.43 c-0.2-0.3-0.48-0.52-0.82-0.64l-0.07-0.02l-0.13-0.04l-0.13-0.04l-0.13-0.04L99.12,9.9L99,9.86l-0.13-0.04l-0.13-0.04l-0.13-0.04 L98.49,9.7l-0.13-0.04l-0.13-0.04L98.1,9.59l-0.13-0.03l-0.13-0.03l-0.13-0.03l-0.13-0.03l-0.13-0.03l-0.13-0.03l-0.13-0.03 l-0.13-0.03L96.92,9.3l-0.13-0.03l-0.13-0.03l-0.13-0.03L96.39,9.2L96.3,9.18c-1.43-0.26-2.46,1.37-1.61,2.55 c0.25,0.34,0.62,0.57,1.03,0.65l0.07,0.01l0.11,0.02l0.11,0.02l0.11,0.02l0.11,0.02l0.11,0.02l0.11,0.02l0.11,0.03l0.11,0.03 l0.11,0.03l0.11,0.03l0.11,0.03l0.11,0.03l0.11,0.03l0.11,0.03l0.11,0.03l0.11,0.03l0.11,0.03l0.11,0.03l0.11,0.03l0.11,0.03 l0.11,0.03l0.11,0.04l0.11,0.04l0.11,0.04l0.11,0.04L98.61,13.16L98.61,13.16z M86.27,12.09c0.66,0,1.25-0.4,1.5-1 c0.44-1.07-0.34-2.25-1.5-2.25h-3.26c-0.66,0-1.25,0.4-1.5,1c-0.44,1.07,0.34,2.25,1.5,2.25H86.27L86.27,12.09z M73.25,12.09 c0.66,0,1.25-0.4,1.5-1c0.44-1.07-0.34-2.25-1.5-2.25h-3.26c-0.66,0-1.25,0.4-1.5,1c-0.44,1.07,0.34,2.25,1.5,2.25H73.25 L73.25,12.09z M60.22,12.09c0.66,0,1.25-0.4,1.5-1c0.44-1.07-0.34-2.25-1.5-2.25h-3.26c-0.66,0-1.25,0.4-1.5,1 c-0.44,1.07,0.34,2.25,1.5,2.25H60.22L60.22,12.09z M47.2,12.09c0.66,0,1.25-0.4,1.5-1c0.44-1.07-0.34-2.25-1.5-2.25h-3.26 c-0.66,0-1.25,0.4-1.5,1c-0.44,1.07,0.34,2.25,1.5,2.25H47.2L47.2,12.09z M29.23,20.61h64.42c5.24,0,9.53,4.29,9.53,9.53v0 c0,5.24-4.29,9.53-9.53,9.53H29.23c-5.24,0-9.53-4.29-9.53-9.53v0C19.69,24.9,23.98,20.61,29.23,20.61L29.23,20.61z"/></g></svg>