<?xml version="1.0" encoding="utf-8"?><svg version="1.1" id="Layer_1" xmlns="http://www.w3.org/2000/svg" xmlns:xlink="http://www.w3.org/1999/xlink" x="0px" y="0px" viewBox="0 0 115.63 122.88" style="enable-background:new 0 0 115.63 122.88" xml:space="preserve"><g><path d="M27.64,37.98l1.85,4.47l0.04,0.1l-0.1,0.05l-7.02,3.81l-0.1,0.06l-0.06-0.1l-2.34-3.72c-0.49,0.18-1.03,0.36-1.64,0.57 c-0.9,0.31-1.96,0.67-3.13,1.1c-1.39,0.51-2.7,1.04-3.85,1.59c-0.68,0.32-1.31,0.66-1.89,1.02c1.21,2.78,2.58,5.39,4.12,7.85 c1.71,2.74,3.61,5.26,5.68,7.57c1.76,1.97,3.42,3.51,4.99,4.79c1.56,1.27,3.05,2.29,4.47,3.2c9.1,5.85,11.98,10.59,15.23,15.91 c2.01,3.3,4.17,6.84,8.19,11.03c3.63,3.78,7.43,6.63,11.45,8.6c3.99,1.96,8.23,3.05,12.77,3.35c6.78,0.44,15.63-0.46,24.13-1.32 c3.94-0.4,7.81-0.79,11.37-1.05l-0.01-0.05c-0.2-1.2-0.46-2.25-0.81-3.15c-0.32-0.82-0.71-1.49-1.2-2.02 c-2.22-2.39-6.01-2.25-9.89-2.11c-2.89,0.1-5.83,0.21-8.59-0.59c-5.25-1.53-9.15-5.51-11.97-10.6c-1.92,1.45-3.8,2.43-5.71,2.85 c-2.29,0.51-4.49,0.21-6.67-1.02c-1.3-0.74-1.75-2.39-1.02-3.69c0.74-1.3,2.39-1.75,3.69-1.02c0.94,0.53,1.87,0.66,2.83,0.45 c1.19-0.26,2.51-1.02,3.99-2.19c0.18-0.14,0.37-0.26,0.57-0.35c-0.31-0.8-0.6-1.61-0.88-2.43c-1.62,1.11-3.22,1.87-4.83,2.22 c-2.29,0.51-4.49,0.21-6.67-1.02c-1.3-0.74-1.75-2.39-1.02-3.69c0.74-1.3,2.39-1.75,3.69-1.02c0.94,0.53,1.87,0.66,2.83,0.45 c1.19-0.26,2.51-1.02,3.99-2.19c0.15-0.12,0.3-0.22,0.47-0.3c-0.29-1.27-0.54-2.54-0.76-3.79c-1.62,1.11-3.22,1.87-4.84,2.23 c-2.29,0.51-4.49,0.21-6.67-1.02c-1.3-0.74-1.75-2.39-1.02-3.69c0.74-1.3,2.39-1.75,3.69-1.02c0.94,0.53,1.87,0.66,2.83,0.45 c1.19-0.26,2.51-1.02,3.99-2.19c0.37-0.3,0.8-0.48,1.23-0.55c-0.13-1.35-0.22-2.66-0.28-3.9l-0.01-0.06l-0.08-0.94 c-0.24-2.88-0.4-4.85-1.45-5.86c-1.91-1.85-4.95-1.45-7.93-1.05c-1.32,0.18-2.64,0.35-3.96,0.37c-4.41,0.05-8.4-0.87-11.81-3.15 c-3.37-2.26-6.1-5.82-8.01-11.07c-1.6-3.3-3.18-4.94-4.88-5.24c-1.75-0.31-3.91,0.71-6.57,2.76l-0.01,0.01L27.64,37.98L27.64,37.98 z M25.92,34.86c3.37-2.59,6.34-3.88,9.12-3.47L57.2,0.73c0.57-0.79,1.66-0.97,2.45-0.4c0.79,0.57,0.97,1.66,0.4,2.45L38.36,32.8 c1.59,1.19,3.02,3.12,4.35,5.89c0.03,0.06,0.05,0.12,0.07,0.18c1.63,4.53,3.91,7.55,6.69,9.41c2.77,1.86,6.1,2.6,9.82,2.56 c1.09-0.01,2.31-0.17,3.54-0.34c2.12-0.28,4.26-0.57,6.28-0.24l38.13-43.69c0.64-0.73,1.75-0.8,2.48-0.17s0.8,1.75,0.17,2.48 l-37.3,42.74c0.37,0.26,0.73,0.56,1.09,0.9c2,1.94,2.21,4.44,2.51,8.09c0.02,0.21,0.04,0.43,0.08,0.93 c0.01,0.07,0.01,0.14,0.01,0.21c0.31,6.99,1.8,16.11,5.28,23.26c2.48,5.11,5.96,9.16,10.72,10.55c2.22,0.64,4.88,0.55,7.49,0.46 c4.7-0.17,9.28-0.33,12.59,3.23c0.81,0.87,1.43,1.92,1.91,3.14c0.44,1.13,0.76,2.43,1,3.87c0.08,0.47,0.14,0.95,0.18,1.43 c0.11,0.22,0.19,0.46,0.2,0.72c0.01,0.27-0.03,0.53-0.13,0.77c0.01,1.95-0.3,3.91-1.06,5.66c-1,2.32-2.73,4.25-5.44,5.31 c-2.2,0.86-6.5,1.51-11.17,1.96c-6.43,0.61-13.67,0.87-16.93,0.78c-11.25-0.3-19.51-2.25-26.41-6.05 c-6.91-3.81-12.38-9.43-18.07-17.1c-6.74-9.08-8.31-10.26-13.84-14.4c-1.27-0.95-2.73-2.05-4.36-3.3 c-4.68-3.62-9.45-8.05-12.91-12.71c-2.54-3.42-4.4-7-5.05-10.52c-0.68-3.71-0.04-7.32,2.48-10.59c0.91-1.17,2.06-2.29,3.47-3.35 c1.02-0.76,2.23-1.45,3.56-2.09c1.32-0.63,2.72-1.2,4.16-1.73c1.35-0.5,2.35-0.84,3.2-1.13c2.2-0.76,3.39-1.17,4.94-2.17 c0.46-0.3,0.99-0.67,1.61-1.13c0.67-0.5,1.38-1.05,2.16-1.68C25.87,34.89,25.89,34.87,25.92,34.86L25.92,34.86z M6.54,49.18 c-0.38,0.38-0.72,0.77-1.02,1.16c-1.85,2.39-2.31,5.05-1.81,7.8c0.54,2.94,2.17,6.03,4.41,9.06c3.25,4.38,7.77,8.57,12.24,12.02 c1.77,1.37,3.13,2.39,4.32,3.28c5.85,4.39,7.52,5.63,14.56,15.12c5.4,7.27,10.54,12.58,16.94,16.11c6.41,3.53,14.16,5.34,24.8,5.63 c3.16,0.08,10.21-0.16,16.51-0.77c4.38-0.42,8.34-1,10.22-1.74c1.73-0.68,2.84-1.92,3.49-3.42c0.4-0.94,0.64-1.97,0.73-3.05 c-3.51,0.25-7.31,0.64-11.18,1.03c-8.65,0.88-17.66,1.79-24.69,1.34c-4.99-0.32-9.66-1.54-14.09-3.71 c-4.4-2.16-8.53-5.24-12.44-9.32c-4.29-4.47-6.55-8.18-8.66-11.64c-3.02-4.95-5.71-9.36-14.12-14.78c-1.5-0.96-3.08-2.05-4.79-3.43 c-1.69-1.38-3.48-3.04-5.39-5.17c-2.23-2.48-4.25-5.16-6.05-8.05C9.06,54.31,7.73,51.82,6.54,49.18L6.54,49.18z"/></g></svg>